<svg xmlns="http://www.w3.org/2000/svg" xmlns:xlink="http://www.w3.org/1999/xlink" width="400" height="400" version="1.1" viewBox="0 0 400 400"><title>Altair Logo</title><desc>Created using Figma</desc><g id="Canvas" transform="translate(165 262)"><clipPath id="clip-0" clip-rule="evenodd"><path fill="#FFF" d="M -165 -262L 235 -262L 235 138L -165 138L -165 -262Z"/></clipPath><g id="Altair Logo" clip-path="url(#clip-0)"><g id="Group"><g id="Vector"><use fill="#FBC02D" transform="translate(-138 -212)" xlink:href="#path0_fill"/></g><g id="Rectangle"><use fill="#0288D1" transform="translate(-23 -212)" xlink:href="#path1_fill"/></g><g id="Rectangle 2"><use fill="#03A9F4" transform="translate(47 -112)" xlink:href="#path2_fill"/></g><g id="Rectangle 3"><use fill="#4FC3F7" transform="translate(117 -12)" xlink:href="#path3_fill"/></g></g></g></g><defs><path id="path0_fill" d="M 115 300L 0 300L 115 0L 115 300Z"/><path id="path1_fill" d="M 0 0L 90 0L 90 300L 0 300L 0 0Z"/><path id="path2_fill" d="M 0 0L 90 0L 90 200L 0 200L 0 0Z"/><path id="path3_fill" d="M 0 0L 90 0L 90 100L 0 100L 0 0Z"/></defs></svg>